<svg width="20" height="20" viewBox="0 0 20 20" fill="none" xmlns="http://www.w3.org/2000/svg">
<path fill-rule="evenodd" clip-rule="evenodd" d="M3 2C2.73478 2 2.48043 2.10536 2.29289 2.29289C2.10536 2.48043 2 2.73478 2 3V17C2 17.2652 2.10536 17.5196 2.29289 17.7071C2.48043 17.8946 2.73478 18 3 18H7C7.55228 18 8 18.4477 8 19C8 19.5523 7.55228 20 7 20H3C2.20435 20 1.44129 19.6839 0.87868 19.1213C0.31607 18.5587 0 17.7957 0 17V3C0 2.20435 0.31607 1.44129 0.87868 0.87868C1.44129 0.31607 2.20435 0 3 0H7C7.55228 0 8 0.447715 8 1C8 1.55228 7.55228 2 7 2H3Z" fill="#647995"/>
<path d="M19.7071 9.29289C19.5262 9.11228 19.2758 9 19 9H16.5858L17.5858 10L16.5858 11H19C19.4172 11 19.7747 10.7446 19.9246 10.3815C19.9736 10.2629 19.9987 10.1367 19.9999 10.0103C20 10.0033 20 9.99635 19.9999 9.98939C19.9998 9.97693 19.9994 9.96447 19.9989 9.95203C19.9985 9.94489 19.9981 9.93775 19.9976 9.93062C19.9902 9.82363 19.9657 9.7176 19.924 9.61699C19.8744 9.49749 19.8023 9.38968 19.713 9.29886C19.7111 9.29687 19.7091 9.29488 19.7071 9.29289Z" fill="#647995"/>
<path d="M7 9C6.44772 9 6 9.44771 6 10C6 10.5523 6.44772 11 7 11H16.5858L17.5858 10L16.5858 9H7Z" fill="#647995"/>
<path d="M14.7071 4.29289C14.3166 3.90237 13.6834 3.90237 13.2929 4.29289C12.9024 4.68342 12.9024 5.31658 13.2929 5.70711L16.5858 9H19C19.2758 9 19.5262 9.11228 19.7071 9.29289L14.7071 4.29289Z" fill="#647995"/>
<path d="M14.7071 15.7071L19.7071 10.7071C19.8033 10.6109 19.8758 10.5 19.9246 10.3815C19.7747 10.7446 19.4172 11 19 11H16.5858L13.2929 14.2929C12.9024 14.6834 12.9024 15.3166 13.2929 15.7071C13.6834 16.0976 14.3166 16.0976 14.7071 15.7071Z" fill="#647995"/>
</svg>
