<svg width="48" height="49" viewBox="0 0 48 49" fill="none" xmlns="http://www.w3.org/2000/svg">
<rect y="0.5" width="48" height="48" rx="24" fill="#F4F7FA"/>
<path fill-rule="evenodd" clip-rule="evenodd" d="M19.0503 15.5503C20.363 14.2375 22.1435 13.5 24 13.5C25.8565 13.5 27.637 14.2375 28.9498 15.5503C30.2625 16.863 31 18.6435 31 20.5C31 23.8527 31.7171 25.9346 32.3779 27.1461C32.7097 27.7544 33.0328 28.1535 33.2572 28.3904C33.3697 28.5091 33.4581 28.5878 33.5113 28.6322C33.5379 28.6544 33.5558 28.668 33.5635 28.6737C33.5647 28.6746 33.5656 28.6753 33.5663 28.6758C33.9248 28.9221 34.0835 29.3725 33.9571 29.7898C33.8294 30.2115 33.4407 30.5 33 30.5H15C14.5593 30.5 14.1706 30.2115 14.0429 29.7898C13.9166 29.3725 14.0752 28.9221 14.4337 28.6758C14.4344 28.6753 14.4354 28.6746 14.4366 28.6737C14.4443 28.668 14.4621 28.6544 14.4887 28.6322C14.542 28.5878 14.6303 28.5091 14.7428 28.3904C14.9672 28.1535 15.2903 27.7544 15.6221 27.1461C16.2829 25.9346 17 23.8527 17 20.5C17 18.6435 17.7375 16.863 19.0503 15.5503ZM17.1493 28.5H30.8507C30.7746 28.3753 30.6982 28.2434 30.6221 28.1039C29.7829 26.5654 29 24.1473 29 20.5C29 19.1739 28.4732 17.9021 27.5356 16.9645C26.5979 16.0268 25.3261 15.5 24 15.5C22.6739 15.5 21.4022 16.0268 20.4645 16.9645C19.5268 17.9021 19 19.1739 19 20.5C19 24.1473 18.2171 26.5654 17.3779 28.1039C17.3018 28.2434 17.2254 28.3753 17.1493 28.5Z" fill="#647995"/>
<path fill-rule="evenodd" clip-rule="evenodd" d="M21.7682 32.635C22.246 32.3579 22.8579 32.5205 23.135 32.9982C23.2229 33.1498 23.3491 33.2756 23.5009 33.363C23.6527 33.4504 23.8248 33.4965 24 33.4965C24.1752 33.4965 24.3473 33.4504 24.4991 33.363C24.6509 33.2756 24.7771 33.1498 24.865 32.9982C25.1421 32.5205 25.7541 32.3579 26.2318 32.635C26.7095 32.9121 26.8721 33.524 26.595 34.0018C26.3313 34.4564 25.9528 34.8337 25.4974 35.0961C25.0419 35.3584 24.5256 35.4965 24 35.4965C23.4744 35.4965 22.9581 35.3584 22.5027 35.0961C22.0473 34.8337 21.6687 34.4564 21.405 34.0018C21.1279 33.524 21.2905 32.9121 21.7682 32.635Z" fill="#647995"/>
</svg>
